<svg xmlns="http://www.w3.org/2000/svg" viewBox="0 0 200 200" fill="none">
  <!-- Background rounded square -->
  <rect width="200" height="200" rx="44" fill="#16A34A"/>
  <!-- WhatsApp-style chat bubble -->
  <path d="M100 36C65.8 36 38 63.8 38 98c0 11.4 3.2 22.1 8.7 31.2L38 164l35.8-8.6A62 62 0 00100 160c34.2 0 62-27.8 62-62S134.2 36 100 36z" fill="white" fill-opacity="0.18"/>
  <!-- WA phone icon path -->
  <path d="M122.5 109.6c-2.1-1.1-12.5-6.2-14.4-6.9-1.9-.7-3.3-1-4.7 1.1-1.4 2.1-5.5 6.9-6.7 8.3-1.2 1.4-2.5 1.6-4.6.5-2.1-1.1-8.9-3.3-17-10.5-6.3-5.6-10.5-12.6-11.8-14.7-1.2-2.1-.1-3.3 1-4.3.9-.9 2.1-2.5 3.2-3.7 1.1-1.2 1.4-2.1 2.1-3.5.7-1.4.4-2.7-.2-3.7-.5-1.1-4.7-11.5-6.5-15.7-1.7-4.1-3.4-3.6-4.7-3.6-1.2 0-2.6-.1-4-.1-1.4 0-3.7.5-5.6 2.7-1.9 2.1-7.4 7.2-7.4 17.7 0 10.4 7.6 20.5 8.6 21.9 1.1 1.4 14.9 22.8 36.2 32 5.1 2.2 9 3.5 12.1 4.5 5.1 1.6 9.7 1.4 13.4.8 4.1-.6 12.5-5.1 14.3-10.1 1.8-4.9 1.8-9.2 1.2-10.1-.5-.9-1.9-1.4-4-2.6z" fill="white"/>
  <!-- WWAS text -->
  <text x="100" y="185" font-family="Inter, Arial, sans-serif" font-size="22" font-weight="800" fill="white" text-anchor="middle" letter-spacing="3">WWAS</text>
</svg>
